<svg fill="none" height="133" viewBox="0 0 124 133" width="124" xmlns="http://www.w3.org/2000/svg"
>
    <clipPath id="a">
        <path d="m.047363.77832h123.392v131.268h-123.392z"/>
    </clipPath>
    <g clip-path="url(#a)">
        <path d="m91.2031 91.2616c-2.1003.2408-3.0014 1.9158-4.0509 3.3158-4.2702 5.6946-8.6355 7.2196-15.506 5.3216-5.2881-1.4623-6.7446-.7738-9.303 4.193-.907 1.929-1.9865 3.772-3.2252 5.507-.8967 1.15-2.0409 2.083-3.3472 2.73s-2.7411.991-4.1988 1.008c-1.4578.018-2.901-.294-4.222-.911-1.321-.616-2.4861-1.522-3.4093-2.65-.2819-.35-.5833-.683-.903-.999-1.6953-1.582-3.4364-1.255-4.056 1.014-.5251 1.923-.5439 3.985-.7749 5.987-.3472 3.006-.6371 6.021-1.0499 9.018-.1607.997-.4707 1.965-.9191 2.87-2.2769 4.802-7.8843 5.352-10.7072.834-1.3836-2.214-2.0011-4.943-2.7631-7.498-.6065-2.035-.7393-4.21-1.3845-6.225-.7942-2.478-1.9734-2.85-4.3691-1.778-1.3926.718-2.8307 1.345-4.3049 1.875-5.20414 1.544-10.03485-1.247-11.49783-6.464-.686528-2.448-1.032371-4.563 1.22871-6.669 1.48792-1.387 2.23154-3.5925 3.24099-5.4696 10.56703-19.6901 22.20743-38.7376 34.63913-57.2982 6.6828-9.9763 13.4843-19.8785 20.2708-29.78721 1.2668-1.8502 2.7779-3.53182 4.0643-5.37023 1.6058-2.29718 3.7599-3.028351 6.4437-2.65227 5.4627.76595 10.3117 3.10983 14.8247 6.08042 18.0695 11.89349 29.8735 28.20349 34.4355 49.50499.959 4.4775 2.334 8.8873 1.664 13.6175-.225 1.587.552 3.2935.694 4.9606.327 2.6962-.198 5.4273-1.5 7.8104-1.288 2.2316-3.008 3.4543-5.787 3.0756-3.27-.445-3.938.1083-4.483 3.3729-.459 2.7645-.702 5.5651-1.116 8.3355-.189 1.2189-.475 2.4216-.853 3.5946-1.187 3.745-3.241 5.393-6.739 5.504-3.8654.124-6.882-1.772-8.0725-5.34-.5251-1.575-.5665-3.3024-.9399-4.9347-.4385-1.8995-.1195-4.1048-2.0235-5.4837zm-9.1297-37.8601c-.0472-.1017-.0649-.2521-.145-.298-.4627-.3007-.9511-.5602-1.4591-.7758-4.3843-1.5817-6.9381-4.7525-8.0657-9.1887-.3859-1.5168-.7358-3.0461-1.1998-4.5386-.5014-1.9456-1.1663-3.8457-1.9861-5.68-1.9434-3.8159-6.0386-5.3609-11.3208-4.7053-3.7871.47-4.574 3.5397-6.2352 6.333 5.4896.7115 7.9033 4.0418 8.4907 8.6604.4285 3.0182.1307 6.0951-.8678 8.9753-.9986 2.8803-2.6692 5.4808-4.8738 7.586-5.0801 5.0729-12.0854 5.7313-18.2596 2.0663-.6491-.3853-1.2685-.8217-2.1978-1.4269l-24.89243 40.1348.43456.633 17.21767-5.5219c.0735-.766.1228-1.0948.1314-1.4249.0131-.4483-.044-.9018 0-1.3462.7403-7.7106 3.6576-14.0147 11.0263-17.639 7.5111-3.6939 19.137-2.8072 23.7596 7.007.2306.4109.4881.8053.771 1.1814 1.3495-.4594 2.6191-.867 3.8726-1.3218 1.3238-.4798 2.6312-1.0042 3.9111-1.4965-3.2568-10.4128 1.5686-21.2101 11.8882-27.2136zm-52.2439 73.1965.9422-.217c1.5975-2.429 1.5857-5.257 1.8588-8.014.3084-3.12.3399-6.295.9595-9.351.9267-4.574 4.7912-7.013 8.9727-5.914 1.8056.474 3.6272.968 4.9392 2.594 1.2004 1.486 2.9725 2.377 4.761 1.337 1.2124-.775 2.1698-1.891 2.7523-3.208 1.6339-3.59 4.3206-6.5986 7.7036-8.6274 1.1967-.8348 2.5661-1.3881 4.0068-1.6198 1.44-.2317 2.9148-.1352 4.3128.2816 1.0771.3097 2.1318.7331 3.2285.9326 2.8505.5185 5.3413.0197 7.0557-2.6431.6977-1.0186 1.4695-1.9841 2.3103-2.8879 2.4245-2.7533 5.2874-4.7715 9.1316-3.6393 3.6867 1.0855 5.0138 4.2143 5.6261 7.7008.3105 1.7662.5336 3.5488.8572 5.313.2297 1.253.6268 2.5135 2.1912 2.5635 1.564.051 1.523-1.3821 1.873-2.381.166-.5362.274-1.0889.32-1.6481.328-2.7822.627-5.5677.952-8.3493.767-6.5436 5.084-9.0213 10.049-8.2698.184.0276.4-.1562.985-.4037.236-1.7977.5-3.7962.827-6.2857-5.309 1.4597-10.003 2.5597-14.571 4.0398-21.7558 7.0411-43.4415 14.2983-65.2286 21.2397-9.7072 3.0931-19.5929 5.6271-29.39993 8.4081-.67278.191-1.36104.328-2.15652.517 2.30046 3.286 3.52505 3.711 6.58225 2.376 1.0226-.447 1.9488-1.109 2.9622-1.581.9767-.532 2.0204-.932 3.1032-1.187 3.8107-.622 6.9465 1.252 8.2789 5.258.9491 2.854 1.3095 5.898 2.0741 8.82.4326 1.652 1.1517 3.232 1.7424 4.846zm74.6515-56.9628c-.076-1.0009-.208-1.9965-.394-2.9824-3.787-14.6861-10.2553-27.9999-20.6024-39.2114-5.2658-5.7049-11.9283-9.2688-19.3557-11.6927l-6.2153 8.9571c1.3461 0 2.0195.0512 2.683-.0079 6.8963-.6157 11.7893 3.8625 13.759 10.0124.6143 1.9158 1.1335 3.8639 1.6506 5.8086.9885 3.7142 2.9483 6.4734 6.9067 7.4763 1.0744.3249 2.1055.78 3.0703 1.3553 4.1481 2.2433 6.6894 5.6551 6.9159 10.428.0242 2.6871-.088 5.3736-.3361 8.0492-.0952 1.7321-.2461 3.4615-.3872 5.4023zm11.397-2.9364c-.092-1.1537-.117-1.8213-.203-2.4803-2.657-20.3123-11.381-37.2051-28.215-49.3722-3.5442-2.5415-7.3241-4.7371-11.2884-6.55686-5.2316-2.41858-5.7895-2.04126-8.7903 2.93636-.0899.149-.0112.4004-.0112.596.1917.129.3932.242.6032.3374.6321.2278 1.2812.4089 1.91.6452 7.4651 2.8025 14.0358 6.8771 19.3757 12.9351 8.6926 9.8961 15.209 21.5078 19.128 34.0829.842 2.6398 1.684 5.2796 2.576 8.0775zm-59.3117 18.747c-1.547-4.8517-5.5501-7.0537-10.7693-6.2746-7.4291 1.1085-12.3595 6.6323-12.364 14.1027zm-19.2966-29.7268c4.8622 3.8298 9.6134 3.5246 12.7441-.6379 1.9302-2.5135 2.9606-5.6023 2.926-8.7713-.0361-3.8107-1.4722-5.2744-5.6898-5.7299zm48.7569 19.5522c.4404-3.1373.8578-5.907 1.2115-8.6853.3604-2.8334 1.3318-5.6765.155-8.5428-7.6319 1.4866-12.9647 12.5025-9.6778 19.9841z"
              fill="#B71C1C"/>
    </g>
</svg>